<svg width="113" height="113" viewBox="0 0 113 113" fill="none" xmlns="http://www.w3.org/2000/svg">
<circle cx="56.5" cy="56.5" r="56.5" fill="#1E1E1E"/>
<path d="M84.4969 37.0684H73.8182L67.4268 30.6137C67.4268 30.6137 67.3951 30.582 67.3793 30.582L67.3477 30.5504C66.3984 29.6012 65.117 29 63.6615 29H50.3725C48.8221 29 47.4457 29.6645 46.4807 30.7244V30.7402L40.2316 37.0684H29.3156C26.373 37.0684 24 39.3781 24 42.3207V74.2936C24 77.2361 26.373 79.625 29.3156 79.625H84.4969C87.4236 79.625 89.8125 77.2361 89.8125 74.2936V42.3207C89.8125 39.3781 87.4236 37.0684 84.4969 37.0684ZM56.9062 71.6357C48.8537 71.6357 42.2883 65.0545 42.2883 56.9861C42.2883 48.902 48.8537 42.3365 56.9062 42.3365C64.9746 42.3365 71.5242 48.902 71.5242 56.9861C71.5242 65.0545 64.9746 71.6357 56.9062 71.6357ZM83.5002 45.5322C82.282 45.5322 81.2854 44.5355 81.2854 43.3016C81.2854 42.0676 82.282 41.0709 83.5002 41.0709C84.7184 41.0709 85.715 42.0676 85.715 43.3016C85.715 44.5355 84.7184 45.5322 83.5002 45.5322Z" fill="#606060"/>
<path d="M56.9062 45.9119C50.7996 45.9119 45.8636 50.8637 45.8636 56.9861C45.8636 63.0928 50.7996 68.0604 56.9062 68.0604C62.997 68.0604 67.9488 63.1086 67.9488 56.9861C67.9488 50.8637 62.997 45.9119 56.9062 45.9119Z" fill="#606060"/>
</svg>
