<svg width="152" height="18" viewBox="0 0 152 18" fill="none" xmlns="http://www.w3.org/2000/svg">
<path d="M0.660321 1.15148H3.07533V7.62026H8.66005V1.15148H11.0751V17H8.66005V9.64715H3.07533V17H0.660321V1.15148ZM16.934 17.2156C16.5028 17.2156 16.1362 17.0719 15.8343 16.7844C15.5325 16.4825 15.3815 16.1159 15.3815 15.6847C15.3815 15.2391 15.5253 14.8725 15.8128 14.585C16.1147 14.2831 16.4884 14.1322 16.934 14.1322C17.3797 14.1322 17.7462 14.2831 18.0337 14.585C18.3356 14.8725 18.4865 15.2391 18.4865 15.6847C18.4865 16.1159 18.3356 16.4825 18.0337 16.7844C17.7462 17.0719 17.3797 17.2156 16.934 17.2156ZM36.4079 17.1509C34.7692 17.1509 33.346 16.7844 32.1385 16.0512C30.9454 15.3181 30.0326 14.3406 29.4001 13.1187C28.7676 11.8825 28.4513 10.524 28.4513 9.04339C28.4513 7.47651 28.7891 6.07494 29.4648 4.83869C30.1548 3.60243 31.1179 2.6393 32.3542 1.94929C33.5904 1.24492 34.992 0.892726 36.5589 0.892726C37.2633 0.892726 37.9173 0.971789 38.5211 1.12991C39.1392 1.27367 39.6495 1.44617 40.052 1.64742C40.4545 1.83429 40.7205 1.99242 40.8498 2.12179L39.7933 4.27806C38.9164 3.5018 37.7736 3.11368 36.3648 3.11368C35.3729 3.11368 34.4745 3.35805 33.6695 3.8468C32.8645 4.33556 32.232 5.03275 31.772 5.93838C31.312 6.84401 31.082 7.89339 31.082 9.08652C31.082 10.179 31.2832 11.1709 31.6857 12.0622C32.1026 12.9534 32.7064 13.6578 33.497 14.1753C34.2876 14.6928 35.2292 14.9516 36.3217 14.9516C37.5867 14.9516 38.8086 14.5922 39.9873 13.8734L40.6989 15.9219C40.3826 16.2094 39.8005 16.4897 38.9523 16.7628C38.1186 17.0216 37.2704 17.1509 36.4079 17.1509ZM50.0876 1.12991L57.7207 17H54.9392L53.5807 13.895H46.3141L44.9557 17H42.2603L49.8504 1.12991H50.0876ZM49.0094 7.87901L47.2844 11.7172H52.632L50.9285 7.90058L50.0013 5.72275H49.9582L49.0094 7.87901ZM63.7706 17.2156C62.9081 17.2156 62.0527 17.0647 61.2046 16.7628C60.3565 16.4609 59.7455 16.1231 59.3718 15.7494L60.5146 13.7009C60.8165 13.974 61.2837 14.2615 61.9162 14.5634C62.5631 14.8509 63.1812 14.9947 63.7706 14.9947C64.5324 14.9947 65.1506 14.815 65.6249 14.4556C66.1137 14.0962 66.3581 13.6003 66.3581 12.9678C66.3581 12.479 66.2287 12.055 65.9699 11.6956C65.7112 11.3362 65.3949 11.0415 65.0212 10.8115C64.6474 10.5672 64.1156 10.2725 63.4256 9.92746C62.6062 9.52496 62.0455 9.22308 61.7437 9.02183C60.3493 8.08745 59.6521 6.7937 59.6521 5.14056C59.6521 3.77493 60.1049 2.73274 61.0105 2.01398C61.9162 1.28085 63.059 0.914289 64.439 0.914289C65.9196 0.914289 67.1775 1.33835 68.2125 2.18648L67.0696 4.14868C66.7965 3.86118 66.4084 3.6168 65.9053 3.41555C65.4165 3.19993 64.8918 3.09211 64.3312 3.09211C63.6124 3.09211 63.0446 3.25743 62.6277 3.58805C62.2252 3.9043 62.024 4.37868 62.024 5.01119C62.024 5.45681 62.1534 5.85932 62.4121 6.21869C62.6709 6.56369 62.9943 6.86557 63.3824 7.12432C63.7849 7.38307 64.324 7.69932 64.9996 8.07308C65.6465 8.43245 66.1424 8.71996 66.4874 8.93558C66.8324 9.13683 67.1559 9.38121 67.4578 9.66871C67.8746 10.0425 68.2125 10.4881 68.4712 11.0056C68.73 11.5231 68.8593 12.0909 68.8593 12.709C68.8593 13.6722 68.6365 14.4915 68.1909 15.1672C67.7596 15.8428 67.1559 16.3531 66.3796 16.6981C65.6178 17.0431 64.7481 17.2156 63.7706 17.2156ZM74.8994 3.26461H70.8456V1.15148H81.3897V3.26461H77.2928V17H74.8994V3.26461ZM84.7714 1.15148H91.7145V3.26461H87.1648V7.64183H90.8305V9.79809H87.1648V14.8653H92.4261V17H84.7714V1.15148ZM95.9364 1.15148H98.373V14.8437H102.923V17H95.9364V1.15148ZM106.322 1.15148H108.758V14.8437H113.308V17H106.322V1.15148ZM122.508 1.12991L130.141 17H127.359L126.001 13.895H118.734L117.376 17H114.68L122.27 1.12991H122.508ZM121.429 7.87901L119.704 11.7172H125.052L123.349 7.90058L122.421 5.72275H122.378L121.429 7.87901ZM134.897 6.7362L134.962 8.4612V17H132.547V1.12991H132.848L142.163 11.5231L142.077 9.71184V1.15148H144.492V17H144.169L134.897 6.7362ZM149.214 1.15148H151.629V17H149.214V1.15148Z" fill="white"/>
</svg>
